# xmcd CD database file
#
# Track frame offsets:
#	150
#	13389
#	25075
#	41814
#
# Disc length: 762 seconds
#
# Revision: 1
# Processed by: cddbd v1.5.2PL0 Copyright (c) Steve Scherf et al.
# Submitted via: CDex 1.91
#
DISCID=2d02f804
DTITLE=Lou Depryck - Disco Samba Belga
DYEAR=2016
DGENRE=Polka
TTITLE0=Disco Samba Belga
TTITLE1=Belgicada
TTITLE2=Disco Samba Belga
TTITLE3=Charlie Brown
EXTD=YEAR: 2016
EXTT0=
EXTT1=
EXTT2=
EXTT3=
PLAYORDER=
